<svg version="1.1" viewBox="0 0 49.202 100" xmlns="http://www.w3.org/2000/svg">
 <path d="m12.592 30c2.7614 0 5 2.2386 5 5s-2.2386 5-5 5c-2.7614 0-5-2.2386-5-5s2.2386-5 5-5c15 0 15 10 15 10h-6.589c-10.667 0-20.503 5.1424-20.503 15s8.4504 15 20.503 15h13.761c-4.8816 1.3634-7.1716 10-7.1716 20v-50c0-6.5909 2.611-10 7.1716-10-3.1308 2.7725 4.3529 9.0625-7.1716 10" fill="none" stroke="#000" stroke-linecap="round" stroke-linejoin="round"/>
 <path d="m37.764 45c3e-6 -2.5 2.0866-5 4.4282-5 2.3416 1.4e-5 6.5096 1.6301 6.5096 14.619 0 12.988-4.168 15.381-6.5096 15.381-2.3416 3e-6 -4.4282-2.5-4.4282-5" fill="none" stroke="#000" stroke-linecap="round" stroke-linejoin="round"/>
</svg>
