<svg version="1.1" viewBox="0 0 50.882 100" xmlns="http://www.w3.org/2000/svg">
 <path d="m12.592 30c2.7614 0 5 2.2386 5 5s-2.2386 5-5 5c-2.7614 0-5-2.2386-5-5s2.2386-5 5-5c15 0 15 10 15 10h-6.589c-10.667 0-20.503 5.1424-20.503 15s8.4504 15 20.503 15h13.761c-4.8816 1.3634-7.1716 10-7.1716 20v-50c0-6.5909 2.611-10 7.1716-10-3.1308 2.7725 4.3529 9.0625-7.1716 10" fill="none" stroke="#000" stroke-linecap="round" stroke-linejoin="round"/>
 <path d="m37.764 40h12.618c-8.4593 12.274-12.618 17.413-12.618 22.678 0 5.2647 3.8283 7.3219 6.3091 7.322 2.5702 4e-6 5.4541-1.5495 6.3091-5" fill="none" stroke="#000" stroke-linecap="round" stroke-linejoin="round"/>
</svg>
