<svg version="1.1" viewBox="0 0 49.54 100" xmlns="http://www.w3.org/2000/svg">
 <path d="m21.032 50c2.7614 0 5 2.2386 5 5s-2.2386 5-5 5-5-2.2386-5-5 2.2386-5 5.0006-4.9999c11.224 1.33e-4 11.224 7.4103 11.224 9.7162 0 2.3058-1.8032 10.284-12.839 10.284-11.036 0-18.917-9.9996-18.917-20s9.697-20 22.667-20 25.872 6.7648 25.872 20c0 13.235-8.7795 17.976-16.14 20 3.6667 1.7678 6.6263 4.8611 6.6263 9.6789s-5.4201 10.321-13.26 10.321c-7.84 0-12.001-4.5759-12.001-10" fill="none" stroke="#000" stroke-linecap="round" stroke-linejoin="round"/>
</svg>
