<svg version="1.1" viewBox="0 0 40.997 100" xmlns="http://www.w3.org/2000/svg">
 <g fill="none" stroke="#000" stroke-linecap="round" stroke-linejoin="round">
  <path d="m6.3547 35.858c7.8105-7.8105 20.474-7.8106 28.284-1.01e-4s7.8106 20.474 1.01e-4 28.284-20.474 7.8106-28.284 1.01e-4c-7.8105-7.8105-7.8106-20.474-5.7e-5 -28.284l25.858-25.858"/>
  <path d="m8.9283 15c2.7614 0 5 2.2386 5 5s-2.2386 5-5 5c-2.7614 0-5-2.2386-5-5s2.2386-5 5-5"/>
  <path d="m35.497 15c2.7614 0 5 2.2386 5 5s-2.2386 5-5 5-5-2.2386-5-5 2.2386-5 5-5"/>
 </g>
</svg>
