<svg version="1.1" viewBox="0 0 72.683 100" xmlns="http://www.w3.org/2000/svg">
 <g fill="none" stroke="#000" stroke-linecap="round" stroke-linejoin="round">
  <path d="m18.863 30c2.7614 0 5 2.2386 5 5s-2.2386 5-5 5-5-2.2386-5-5 2.2386-5 5-5c16.704 0 18.367 10 18.367 10l-8.4091 3e-6c-16.625 0-28.321 10-28.321 25s10.905 25 24.096 25c13.191 0 22.294-10 23.745-20"/>
  <path d="m56.341 40c-3.0954 0-5 2.5368-5 5s1.9448 5 5 5 4.806-1.7613 4.806-5 2.4148-5 4.8249-5 6.2107 1.6848 6.2107 15c0 13.315-5.9938 15-8.5547 15-2.5609 0-7.287-2.0681-7.287-10"/>
 </g>
</svg>
