<svg version="1.1" viewBox="0 0 65.147 100" xmlns="http://www.w3.org/2000/svg">
 <g fill="none" stroke="#000" stroke-linecap="round" stroke-linejoin="round">
  <path d="m9.1863 30c2.7614 0 5 2.2386 5 5s-2.2386 5-5 5-5-2.2386-5-5 2.2386-5 5-5c15 0 15 10 15 10h-4.6604c-13.013 0-19.026 6.0398-19.026 15s6.0131 15 12.52 15c6.5066 0 10.381-3.4781 12.337-10 1.9553 6.5219 5.8301 10 12.337 10 6.5066 0 12.52-6.0398 12.52-15s-6.0131-15-19.026-15h-4.6615c0-2.6557 3.5464-10 10.583-10 4.6635 0 8.5076 3.8265 8.5076 10"/>
  <path d="m53.212 43.333c0.66566-1.153 1.7704-3.3333 5.201-3.3333s6.2333 3.3333 6.2333 10v20c-0.77559-1.3013-0.94423-2.3979-3.0948-2.3979-2.1505 0-3.006 2.3979-4.9286 2.3979s-3.4109-1.8747-3.4109-3.3334 0-6.6667 11.434-6.6667"/>
 </g>
</svg>
