<svg version="1.1" viewBox="0 0 71.535 100" xmlns="http://www.w3.org/2000/svg">
 <path d="m4.2665 68.393c-1.8739-2.0283-1.7487-5.1916 0.2796-7.0655s5.1916-1.7487 7.0655 0.2796 1.7487 5.1916-0.2796 7.0655c-2.0284 1.8739-5.1917 1.7487-7.0656-0.27958-8.418-8.417-2.398-38.393 14.793-38.393 2.7618 0 5.0004 2.2386 5.0004 5s-2.2386 5-5 5-5-2.2386-5-5 2.2386-5 5-5c15 0 15 10 15 10h-3.4233c-9.0208 0-18.823 4.636-18.823 15 0 11.825 15.015 15 23.963 15s23.963-3.175 23.963-15c0-10.364-9.8022-15-18.823-15h-3.4235s0-10 15-10c2.7614 0 5 2.2386 5 5s-2.2386 5-5 5-5-2.2386-5-5 2.2386-5 5-5c17.19 0 24.408 32.035 13.071 40" fill="none" stroke="#000" stroke-linecap="round" stroke-linejoin="round"/>
</svg>
