<svg version="1.1" viewBox="0 0 49.879 100" xmlns="http://www.w3.org/2000/svg">
 <g fill="none" stroke="#000" stroke-linecap="round" stroke-linejoin="round">
  <path d="m10.5 30c2.7614 0 5 2.2386 5 5s-2.2386 5-5 5-5-2.2386-5-5 2.2386-5 5-5c15 0 15 10 15 10h-25 10c-9.6924 4.5433-10 12.102-10 14.034 0 7.5 4.8803 15.966 20.313 15.966s22.994-11.085 22.994-25-10.7-35-38.307-35c1.5578 0.97433 3.3572 1.6245 2.3312 4.9685-1.026 3.3439 4.1234 5.0315 5.2256 5.0315 3.4038 0 6.6215 0 12.115-5.4933"/>
  <path d="m43.38 40v-26.667c0-2.3782-1.0679-3.3333-2.4358-3.3333s-2.4315 1.1762-2.4315 2.4336 1.0232 2.4336 2.4336 2.4336c1.4105 0 3.0464-1.7612 5.4641-1.7612 2.0851 0 2.9684 1.4304 2.9684 2.9606 0 2.3541-1.4455 3.9334-5.9989 3.9334"/>
 </g>
</svg>
