<svg version="1.1" viewBox="0 0 49.992 100" xmlns="http://www.w3.org/2000/svg">
 <path d="m24.015 30c2.7614 0 5 2.2386 5 5s-2.2386 5-5 5-5-2.2386-5-5 2.2386-5 5-5c14.054 0 12.519 20 3e-6 20-9.5365 0-12.055-6.5963-11.22-11.273 0.43669-2.4458 3.1238-8.7271-2.5391-8.7271-6.4016 0-9.7545 10-9.7545 20s3.1826 20 11.938 20c8.7558 0 10.021-6.667 11.575-10 1.554 3.333 2.7829 10 11.575 10 19.505-3e-6 20.924-60-11.575-60-8.0187 0-15.219 1.9285-23.514 10" fill="none" stroke="#000" stroke-linecap="round" stroke-linejoin="round"/>
</svg>
