<svg version="1.1" viewBox="0 0 63.01 100" xmlns="http://www.w3.org/2000/svg">
 <path d="m6.9411 30c2.7614 0 5 2.2386 5 5s-2.2386 5-5 5-5-2.2386-5-5 2.2386-5 5-5c10.758 0 10.932 8.1703 9.1022 10 33.605 0 28.266 30 14.565 30-5.557 0-9.5781-4.478-9.5781-10 0 5.522-4.0208 10.027-9.5781 10-7.0504-0.03462-11.092-6.0687-7.5615-14.11l-3.3907 0.77697c2.9765-4.1699 8.3739-11.13 15.544-16.667 7.1698-5.5367 16.047-10.029 25.554-10 28.887 0.08878 26.299 40 1.728 40" fill="none" stroke="#000" stroke-linecap="round" stroke-linejoin="round"/>
</svg>
