<svg version="1.1" viewBox="0 0 63.01 100" xmlns="http://www.w3.org/2000/svg">
 <path d="m6.9416 30c2.7614 0 5 2.2386 5 5s-2.2386 5-5 5c-2.7614 0-5-2.2386-5-5s2.2386-5 5.0002-5c10.758 0 10.932 8.1704 9.1024 10 17.06 0 23.363 6.6378 23.363 15.345 0 8.7073-7.7473 14.655-17.478 14.655-12.494 0-17.328-6.406-17.328-13.642l-4.1014 0.30894c2.9767-4.1698 8.374-11.13 15.544-16.667 7.1698-5.5367 16.048-10.118 25.554-10 28.887 0 26.299 40 1.728 40" fill="none" stroke="#000" stroke-linecap="round" stroke-linejoin="round"/>
</svg>
