<svg version="1.1" viewBox="0 0 42.659 100" xmlns="http://www.w3.org/2000/svg">
 <g fill="none" stroke="#000" stroke-linecap="round" stroke-linejoin="round">
  <path d="m14.561 50c2.7614 0 5 2.2386 5 5 0 2.7614-2.2386 5-5 5s-5-2.2386-5-5c0-2.7614 2.2386-5 5-5 11.504 0 13.66 6.2039 13.66 10 0 5.5736-5.8842 10-13.097 10-9.3925 0-14.624-6.676-14.624-15 0-8.324 7.031-15 14.062-15 7.0309 0 11.959 3.6571 13.659 10"/>
  <path d="m31.221 45c3e-6 -2.5 2.0866-5 4.4282-5 2.3416 1.4e-5 6.5096 1.6301 6.5096 14.619 0 12.988-4.168 15.381-6.5096 15.381-2.3416 3e-6 -4.4282-2.5-4.4282-5"/>
  <path d="m35.649 40v-26.667c0-2.3782-1.0679-3.3333-2.4358-3.3333s-2.4315 1.1762-2.4315 2.4336 1.0232 2.4336 2.4336 2.4336c1.4105 0 3.0464-1.7612 5.4641-1.7612 2.0851 0 2.9684 1.4304 2.9684 2.9606 0 2.3541-1.4455 3.9334-5.9989 3.9334"/>
 </g>
</svg>
