<svg version="1.1" viewBox="0 0 52.563 100" xmlns="http://www.w3.org/2000/svg">
 <g fill="none" stroke="#000" stroke-linecap="round" stroke-linejoin="round">
  <path d="m36.221 40c-3.0954 0-5 2.5368-5 5s1.9448 5 5 5 4.806-1.7613 4.806-5 2.4148-5 4.8249-5 6.2107 1.6848 6.2107 15-5.9938 15-8.5547 15-7.287-2.0681-7.287-10"/>
  <path d="m14.561 50c2.7614 0 5 2.2386 5 5s-2.2386 5-5 5-5-2.2386-5-5 2.2386-5 5-5c11.504 0 13.66 6.2039 13.66 10 0 5.5736-5.8842 10-13.097 10-9.3925 0-14.624-6.676-14.624-15s7.031-15 14.062-15c7.0309 0 11.959 3.6571 13.659 10"/>
 </g>
</svg>
