<svg version="1.1" viewBox="0 0 59.442 100" xmlns="http://www.w3.org/2000/svg">
 <g fill="none" stroke="#000" stroke-linecap="round" stroke-linejoin="round">
  <path d="m14.561 50c2.7614 0 5 2.2386 5 5 0 2.7614-2.2386 5-5 5s-5-2.2386-5-5c0-2.7614 2.2386-5 5-5 11.504 0 13.66 6.2039 13.66 10 0 5.5736-5.8842 10-13.097 10-9.3925 0-14.624-6.676-14.624-15 0-8.324 7.031-15 14.062-15 7.0309 0 11.959 3.6571 13.659 10"/>
  <path d="m45.282 50c2.7614 0 5 2.2386 5 5 0 2.7614-2.2386 5-5 5s-5-2.2386-5-5c0-2.7614 2.2386-5 5-5 11.504 0 13.66 6.2039 13.66 10 0 5.5736-5.8842 10-13.097 10-9.3925 0-14.624-6.676-14.624-15 0-8.324 7.031-15 14.062-15 7.0309 0 11.959 3.6571 13.659 10"/>
 </g>
</svg>
